PathFileType	4	(X/Y/Z)	OpenSim_Sub08_CSStiffKnee_Magnet.trc
DataRate	CameraRate	NumFrames	NumMarkers	Units	OrigDataRate	OrigDataStartFrame	OrigNumFrames
100	100	16	8	m	100	2642	5282
Frame#	Time	torso_imu_offset_imu	pelvis_imu_offset_imu	tibia_r_imu_offset_imu	femur_r_imu_offset_imu	tibia_l_imu_offset_imu	femur_l_imu_offset_imu	toes_r_imu_offset_imu	toes_l_imu_offset_imu
				X1	Y1	Z1	X2	Y2	Z2	X3	Y3	Z3	X4	Y4	Z4	X5	Y5	Z5	X6	Y6	Z6	X7	Y7	Z7	X8		Y8	Z8	

2642	26.41000000	-0.91988253	-0.19402773	0.15725725	-0.58767534	0.25414037	-0.70260584	-0.54886897	-0.66336854	-0.07830077	-0.69181872	-0.48744353	-0.11088563	-0.78574164	0.13981575	0.15749670	-0.62722324	-0.14266433	0.25108054	-0.63887735	-0.41025334	-0.53501499	-0.52892352	-0.24458002	-0.59067515
2643	26.42000000	-0.92152412	-0.19183119	0.15121520	-0.59255320	0.25922978	-0.69755272	-0.54153932	-0.66756792	-0.08744999	-0.68896958	-0.48997354	-0.11734176	-0.78266395	0.15599730	0.16239107	-0.62486315	-0.15009084	0.25165735	-0.64224354	-0.41545238	-0.53267943	-0.55275782	-0.24164812	-0.57610558
2644	26.43000000	-0.92304149	-0.19343374	0.14758145	-0.59725823	0.25965838	-0.68946439	-0.53100827	-0.67545505	-0.09875438	-0.68361932	-0.49162907	-0.12757247	-0.77668692	0.17204831	0.17255365	-0.62479104	-0.15391658	0.24787731	-0.64468561	-0.41667615	-0.52982516	-0.56875959	-0.23304288	-0.56266655
2645	26.44000000	-0.92042654	-0.19486546	0.14124212	-0.59943901	0.26594870	-0.68731971	-0.51576310	-0.68310190	-0.10932761	-0.68327215	-0.49544581	-0.13353710	-0.77349062	0.19740545	0.18077933	-0.61858833	-0.15682209	0.25835979	-0.65068702	-0.41292891	-0.52377094	-0.58351956	-0.23355947	-0.54270412
2646	26.45000000	-0.91698036	-0.20026078	0.13141330	-0.60016912	0.27078756	-0.68329528	-0.49868269	-0.68829674	-0.12122232	-0.68168084	-0.49698456	-0.14128787	-0.76814534	0.20077526	0.19169889	-0.61802014	-0.16044592	0.26525341	-0.66281544	-0.41012133	-0.51324208	-0.60445543	-0.22590560	-0.52228411
2647	26.46000000	-0.92154075	-0.20153993	0.12707966	-0.60263502	0.27019707	-0.68133492	-0.48761564	-0.69826114	-0.13524463	-0.67468960	-0.49879181	-0.15220456	-0.76055776	0.20450924	0.20385310	-0.61938572	-0.15485387	0.26693108	-0.67705545	-0.40782689	-0.50010136	-0.62838949	-0.21230449	-0.49523293
2648	26.47000000	-0.92420237	-0.19761899	0.12021682	-0.59759480	0.27519655	-0.67907304	-0.47663661	-0.70811071	-0.13739068	-0.67458288	-0.49536432	-0.16050815	-0.75758650	0.21394376	0.20901495	-0.61476547	-0.14927549	0.27481177	-0.68850112	-0.41001610	-0.48235335	-0.64690936	-0.20649319	-0.47096640
2649	26.48000000	-0.92156728	-0.20140185	0.11180944	-0.59814078	0.27965160	-0.67784453	-0.45288380	-0.71340590	-0.14939092	-0.67556213	-0.49634279	-0.16438048	-0.75053910	0.21696672	0.21573286	-0.61424079	-0.14480279	0.28049147	-0.70425257	-0.41057409	-0.46007250	-0.65677319	-0.20525451	-0.45458121
2650	26.49000000	-0.92355451	-0.20108772	0.10789790	-0.60167083	0.27428619	-0.67937509	-0.43503457	-0.71408321	-0.16458027	-0.67736684	-0.50150189	-0.16951992	-0.74990158	0.22287561	0.22923275	-0.61510064	-0.14245437	0.27583137	-0.72358159	-0.40719255	-0.42946314	-0.66785939	-0.20991741	-0.43504313
2651	26.50000000	-0.92425455	-0.19880563	0.10476044	-0.60549651	0.26767427	-0.67924172	-0.42276153	-0.72032940	-0.17681512	-0.68070650	-0.49655065	-0.17945135	-0.74564518	0.22847647	0.23861478	-0.61911228	-0.15134713	0.27746906	-0.74321606	-0.40600046	-0.39473969	-0.68033225	-0.21139499	-0.41587189
2652	26.51000000	-0.92627190	-0.20299989	0.09284107	-0.61092351	0.26219575	-0.66835602	-0.40510794	-0.73107469	-0.18461651	-0.67762940	-0.48733388	-0.18966844	-0.73739868	0.23956389	0.24639352	-0.61105563	-0.16957712	0.28290152	-0.75802066	-0.41192134	-0.35898034	-0.68463236	-0.20909052	-0.40555718
2653	26.52000000	-0.92903746	-0.20623655	0.08747389	-0.61685606	0.25879813	-0.66512546	-0.38673948	-0.73595585	-0.18536398	-0.67615916	-0.48731107	-0.20246663	-0.73032871	0.24780936	0.25731940	-0.60469419	-0.18245853	0.28687911	-0.77276568	-0.41460667	-0.31820457	-0.68993367	-0.21979057	-0.39002963
2654	26.53000000	-0.92761724	-0.20117917	0.08857499	-0.62578674	0.25903674	-0.66738813	-0.37068828	-0.74435130	-0.17939446	-0.68008209	-0.48206048	-0.20859440	-0.72858447	0.25674867	0.26900788	-0.60410784	-0.18954640	0.28552555	-0.78488913	-0.42653885	-0.28104552	-0.69604445	-0.22314859	-0.37572607
2655	26.54000000	-0.92516181	-0.20126427	0.07955965	-0.62725125	0.26050378	-0.65894353	-0.35066014	-0.75667044	-0.16016668	-0.68484311	-0.47134741	-0.21462253	-0.72193954	0.26547996	0.27394944	-0.60372194	-0.18633999	0.28867119	-0.78802617	-0.43853267	-0.24490024	-0.69773267	-0.21921933	-0.37672161
2656	26.55000000	-0.92446963	-0.20598125	0.07002493	-0.62713953	0.26642301	-0.65020663	-0.33262729	-0.76775631	-0.14206419	-0.68772433	-0.46464028	-0.22121700	-0.71172100	0.27462412	0.28091586	-0.59941314	-0.17352489	0.29846893	-0.78828568	-0.44671209	-0.21506176	-0.69954889	-0.22037983	-0.37791623
2657	26.56000000	-0.92285581	-0.20421062	0.07387390	-0.62834887	0.27194918	-0.64770069	-0.31565584	-0.78021544	-0.12438830	-0.69243468	-0.45893936	-0.22387597	-0.70891660	0.28891594	0.28418038	-0.60073886	-0.16500206	0.30819459	-0.78307335	-0.45867258	-0.21010048	-0.70506204	-0.21954473	-0.37018909
